# xmcd
#
# Track frame offsets: 
#        200
#        14030
#        26795
#        39712
#        53515
#        67105
#        79662
#        91522
#        102287
#        113260
#        125042
#        135632
#        145897
#        157595
#        169772
#        186045
#        207962
#        224947
#        243715
#        254842
#        267222
#        278957
#        290225
#        303347
#
# Disc length: 4208 seconds
#
# Revision: 0
# Processed by: cddbd v1.5.1PL0 Copyright (c) Steve Scherf et al.
# Submitted via: ExactAudioCopy v0.95a3
#
DISCID=6c106e18
DTITLE=Вадим Козин - Лучшее
DYEAR=1900
DGENRE=Retro
TTITLE0=Осень
TTITLE1=Мой Костёр
TTITLE2=Жалобно Стонет
TTITLE3=Смейся, Смейся Громче Всех
TTITLE4=Нищая
TTITLE5=Прощай Мой Табор
TTITLE6=Любушка
TTITLE7=Снился Мне Сад
TTITLE8=Я Люблю Вас
TTITLE9=Дружба
TTITLE10=Калитка
TTITLE11=18 И 19
TTITLE12=Маша
TTITLE13=Я Вас Любил
TTITLE14=Песня Старого Актёра
TTITLE15=Цыганская Венгерка
TTITLE16=Глядя На Луч
TTITLE17=Грёзы
TTITLE18=Милая
TTITLE19=Тихий День Угасал
TTITLE20=Но Я Знаю Ты Любишь Другого
TTITLE21=Русая Головка
TTITLE22=Чудо - Чудеса
TTITLE23=Забытое Танго
EXTD=
EXTT0=
EXTT1=
EXTT2=
EXTT3=
EXTT4=
EXTT5=
EXTT6=
EXTT7=
EXTT8=
EXTT9=
EXTT10=
EXTT11=
EXTT12=
EXTT13=
EXTT14=
EXTT15=
EXTT16=
EXTT17=
EXTT18=
EXTT19=
EXTT20=
EXTT21=
EXTT22=
EXTT23=
PLAYORDER=
